<svg xmlns="http://www.w3.org/2000/svg" viewBox="0 0 128 128"><defs><style>.cls-1{fill:#512bd4;}.cls-2{fill:#fff;}.cls-3{fill:#4525b5;}.cls-3,.cls-4{opacity:0.33;}.cls-4{fill:#a187ff;}</style></defs><g id="Layer_3" data-name="Layer 3"><text/><polygon class="cls-1" points="0 64 30.19 118.34 94.19 118.34 128 64 97.81 9.66 33.81 9.66 0 64"/><polygon class="cls-2" points="28.44 64 45.22 94.19 80.77 94.19 99.56 64 82.78 33.82 47.23 33.82 28.44 64"/><path class="cls-2" d="M33.8,9.63,48.9,36.8h32L97.8,9.63Z"/><path class="cls-2" d="M30.19,118.32h64L79.1,91.15h-32Z"/><polygon class="cls-2" points="31.34 64.37 46.43 91.54 78.43 91.54 95.34 64.37 80.24 37.2 48.24 37.2 31.34 64.37"/><polygon class="cls-1" points="45.56 64.37 53.94 79.47 71.72 79.47 81.11 64.37 72.73 49.28 54.95 49.28 45.56 64.37"/><rect class="cls-1" x="24.22" y="60.9" width="79.57" height="6.22" transform="translate(80.71 -24.95) rotate(55.63)"/><path class="cls-3" d="M48,9.63l8.39,15.1H74.21L83.6,9.63Z"/><path class="cls-4" d="M43.07,118.32H78.63l-8.39-15.09H52.46Z"/></g></svg>